<svg xmlns="http://www.w3.org/2000/svg" focusable="false" aria-hidden="true" role="presentation" viewBox="0 0 24 24" width="24px" height="24px" class="Scale(.6) Expand">
    <defs>
        <linearGradient id="rewindGradient" x1="0%" y1="0%" x2="100%" y2="100%">
            <stop offset="0%" style="stop-color:rgba(254,219,127,1)"/>
            <stop offset="44%" style="stop-color:rgba(255,207,78,1)"/>
            <stop offset="90%" style="stop-color:rgba(249,171,35,1)"/>
        </linearGradient>
    </defs>
    <path d="M12.119 4.599V3.307c0-1.216-.76-1.672-1.824-.988l-.608.304L6.04 5.13l-.456.304c-1.064.76-1.064 1.748 0 2.28l.38.38c.987.76 2.66 1.824 3.647 2.432l.532.304c.912.76 1.748.228 1.748-.912V8.246a5.125 5.125 0 0 1 5.167 5.167c0 2.888-2.28 5.092-5.167 5.092-3.04 0-5.32-2.28-5.32-5.168 0-.912-.76-1.671-1.747-1.671-1.064 0-1.824.76-1.824 1.671C3 18.125 6.951 22 11.815 22c4.787 0 8.738-3.8 8.738-8.663.076-4.711-3.875-8.51-8.662-8.51l.228-.228" fill="url(#rewindGradient)">
    </path>
</svg>